<svg width="354" height="308" viewBox="0 0 354 308" fill="none" xmlns="http://www.w3.org/2000/svg">
<path d="M117.933 11.0668C108.2 20.2668 104.467 22.8001 84.9999 32.5335C72.8666 38.6668 62.3333 44.2668 61.5333 45.2001C60.1999 46.4001 44.0666 94.8002 7.79993 206.133C3.26659 219.867 0.0665939 232 0.466594 233.2C0.866594 234.4 3.79993 236 6.86659 236.8C9.79993 237.6 18.3333 239.867 25.6666 242C57.7999 251.067 70.4666 254.267 72.0666 253.6C73.6666 253.067 83.2666 228.933 95.2666 195.467C98.5999 186.267 99.1333 183.333 97.5333 184.8C96.3333 185.733 94.8666 187.733 94.1999 189.333C91.5333 195.733 93.5333 182.133 96.5999 172.667C102.733 154.133 105 153.733 105.533 171.067C105.667 177.067 106.2 182.267 106.733 182.8C107.267 183.333 107.667 185.2 107.667 186.933C107.667 188.933 108.867 190.533 111 191.6C113.533 192.8 113.933 193.467 112.867 194.933C112.067 195.867 111.667 196.667 112.2 196.667C112.6 196.667 111.8 197.867 110.333 199.333C108.067 201.6 107.667 203.733 107.667 213.467V224.933L112.6 224.4C115.933 224.133 117.667 224.667 118.067 226C118.467 227.067 118.2 227.6 117.8 227.067C116.867 226.267 114.067 228 109.667 232.267C108.6 233.2 107.267 234 106.467 234C105.667 234 105 234.533 105 235.333C105 236 103.8 236.667 102.2 236.667C100.733 236.667 99.9333 237.2 100.333 238C100.733 238.8 100.2 238.933 98.9999 238.533C97.1333 237.733 97.1333 237.333 99.5333 234.8C101 233.333 102.2 231.6 102.2 230.933C102.333 230.4 102.333 227.733 102.467 224.933C102.467 221.067 102.733 220.533 103.667 222.667C105.4 226.933 106.867 216.667 105.933 206.267C104.067 184.8 101.133 178.933 101 196.533C101 203.333 100.333 214.267 99.3999 220.667L97.9333 232.4L88.0666 239.467C82.0666 243.733 78.3333 247.333 78.3333 248.8C78.3333 250.133 81.3999 256.4 85.2666 262.8L92.0666 274.267L89.9333 288.4C87.9333 301.467 87.9333 302.8 89.9333 304.933C91.9333 307.2 97.3999 307.333 177 307.333C256.333 307.333 262.067 307.2 264.067 304.933C265.933 302.8 265.933 301.333 264.067 288L261.933 273.333L268.867 262.133C273.8 254.4 275.667 250.133 275.133 248.133C274.733 246.667 270.333 242.533 265.267 238.933L256.2 232.667L254.6 221.6C253.667 215.467 253 204.533 253 197.2C252.867 187.333 252.6 184.667 251.533 186.4C250.733 187.733 250.067 194.667 249.933 201.733C249.8 208.8 249.533 211.867 249.267 208.267C249 204.533 248.2 202 247.267 202C245.533 202 240.867 197.333 241.667 196.4C241.933 196.267 239.133 196.267 235.533 196.4C231.4 196.8 229 196.4 229 195.467C229 194.667 227.933 194 226.733 193.867C225.133 193.867 225.533 193.333 227.8 192.533C230.467 191.6 231.667 190 232.2 186.667C233.267 180.933 234.6 180.8 236.6 186C238.333 190.8 241.8 192.4 244.467 189.867C245.533 188.8 247.133 181.867 248.2 173.333C249.133 165.2 250.067 159.467 250.2 160.4C250.2 161.333 251 161.733 251.667 161.333C253.267 160.4 255.667 165.867 254.733 168.267C254.333 169.2 254.6 170 255.4 170C257 170 260.2 178.8 259.933 182.4C259.933 183.6 260.333 184.4 261.133 184C261.8 183.467 262.333 183.867 262.333 184.533C262.333 185.333 261.8 186 261 186C260.333 186 260.067 187.067 260.467 188.4C261 189.6 259.8 188.933 257.8 186.667L254.333 182.667L258.733 195.333C269.4 225.467 280.333 253.067 281.933 253.6C283.4 254.133 311.8 246.8 347.933 236.667C350.6 235.867 353.133 234.267 353.533 232.933C353.933 231.6 349 214.4 342.467 194.667C336.067 174.8 322.467 133.467 312.333 102.667C302.333 71.8668 293.4 46.0001 292.467 45.2001C291.667 44.2668 280.867 38.5335 268.467 32.1335C248.467 22.0001 244.733 19.6001 235.667 10.6668L225.267 0.666813H177H128.867L117.933 11.0668ZM180.333 6.26681C197.267 6.26681 212.867 5.86681 215.267 5.33348C220.867 4.13348 226.067 6.40015 231 12.8001C233.267 15.4668 237.133 19.2001 239.8 20.9335C242.6 22.5335 244.467 24.4001 244.067 24.9335C243.8 25.6001 244.2 26.0001 244.867 26.0001C245.667 26.0001 246.333 26.6668 246.333 27.4668C246.333 28.1335 245.267 28.6668 243.933 28.4001C239.8 27.7335 234.333 31.6001 232.067 36.6668C230.867 39.4668 229.8 40.6668 229.4 39.4668C229 38.5335 229.133 37.3335 229.8 36.8001C231.533 35.6001 235.667 26.2668 235.667 23.6001C235.667 20.2668 232.2 15.8668 227.933 13.6001C224.467 12.0001 223.8 12.0001 219.933 14.6668C217.533 16.2668 216.067 18.0001 216.6 18.5335C217.133 19.0668 216.6 19.0668 215.4 18.6668C213.667 18.0001 213.4 17.0668 214.333 14.5335C215.4 12.0001 215.133 11.0668 213 10.0001C209.8 8.26681 151.667 8.26681 149 10.0001C147.667 10.8001 158.2 11.3335 180.067 11.3335C198.333 11.3335 213 11.8668 212.733 12.4001C211.933 14.5335 184.333 49.8668 183.533 50.0001C183 50.0001 181 47.4668 179 44.2668C174.733 38.0001 149.933 12.6668 147.933 12.6668C145.133 12.6668 147.267 17.4668 151.4 20.6668C154.067 22.6668 155.267 24.1335 154.2 24.5335C153.267 24.8001 151.533 23.8668 150.333 22.4001C149.133 20.9335 146.2 18.6668 143.933 17.4668C141.533 16.2668 139.667 14.6668 139.667 13.8668C139.667 13.0668 139.133 12.9335 138.333 13.3335C137.667 13.7335 137 13.4668 137 12.8001C137 9.60015 128.2 11.3335 123.267 15.4668C118.067 19.7335 116.733 25.2001 119.933 28.4001C122.333 30.8001 120.467 31.4668 115.8 29.8668C111.8 28.4001 110.2 28.5335 104.333 30.6668C102.867 31.2001 103.667 30.4001 106.067 28.8001C108.467 27.2001 110.2 25.4668 109.933 24.9335C109.533 24.4001 111.4 22.5335 114.2 20.9335C116.867 19.2001 120.867 15.4668 123 12.6668C125.267 9.73348 128.067 7.46681 129.4 7.33348C130.733 7.33348 131.533 6.80015 131.133 6.13348C130.6 5.46681 134.467 5.20015 140.067 5.60015C145.267 6.00015 163.533 6.26681 180.333 6.26681ZM154.2 32.6668C184.067 62.4001 198.6 91.7335 226.067 177.6L230.067 190H222.333H214.733L209.667 175.6C194.733 133.6 189.267 119.867 177.533 96.2668C164.6 70.4002 146.333 46.1335 128.333 30.8001L119.933 23.7335L125.4 18.2668L130.733 12.8001L136.733 17.0668C140.067 19.4668 147.933 26.4001 154.2 32.6668ZM230.067 28.2668C228.2 31.0668 220.067 42.1335 212.067 52.9335L197.4 72.6668L193.4 66.2668L189.4 59.8668L192.6 55.8668C200.467 46.2668 216.867 24.8001 220.333 19.6001L224.067 13.8668L228.733 18.5335L233.4 23.2001L230.067 28.2668ZM288.333 64.2668C301.8 104.667 341.933 226.667 341.667 227.067C341.4 227.467 294.467 240.533 289.4 241.6C287.533 242 286.333 241.733 286.333 240.667C286.333 239.733 279.667 221.333 271.533 199.6L256.733 160.133L257.667 150.8C258.067 145.6 258.733 139.2 259.133 136.667C261.267 119.467 265 83.3335 265 79.8668C265 74.9335 262.2 72.1335 258.467 73.3335C255 74.4002 254.733 75.2002 252.333 99.3335C251.133 110.667 249.933 122.4 249.533 125.333C247.933 138.8 244.867 169.067 244.067 178.933C243.4 188.933 241.8 192.8 240.333 188.267C223 132.8 213.133 104.933 206.2 91.0668L202.333 83.3335L216.733 64.4002C224.733 53.8668 233.533 41.8668 236.333 37.7335L241.267 30.1335L262.867 41.3335L284.333 52.4001L288.333 64.2668ZM121.667 39.3335C150.467 64.1335 171 99.3335 193.933 163.333C197.267 172.533 200.733 182.267 201.667 184.933L203.533 190H157.133H110.733L109.8 177.6C109.4 170.933 108.733 163.867 108.467 162C108.067 160.133 107.133 151.733 106.333 143.333C105.533 134.933 104.6 126.533 104.333 124.667C104.067 122.8 102.867 111.2 101.533 98.9335C99.2666 76.1335 97.9333 72.0002 93.2666 72.9335C88.9999 73.7335 88.3333 77.3335 89.9333 92.2668C90.8666 100.133 92.8666 118.667 94.4666 133.467L97.3999 160.133L82.4666 199.467C74.3333 221.2 67.6666 239.6 67.6666 240.4C67.6666 241.333 67.2666 242 66.7333 242C65.2666 242 12.7333 227.467 12.3333 227.067C12.0666 226.667 62.4666 73.2002 67.9333 57.6001C69.5333 52.8001 70.9999 51.7335 89.6666 42.0001C100.733 36.2668 110.333 31.4668 111.133 31.4668C111.933 31.3335 116.6 34.9335 121.667 39.3335ZM132.867 41.0668C135.267 43.0668 137 45.2001 136.467 45.6001C136.067 46.0001 134.6 45.3335 133.4 43.8668C132.067 42.4001 128.733 39.6001 125.933 37.6001C123.267 35.4668 121.267 33.3335 121.667 32.6668C122.067 32.0001 123.667 32.8001 125.4 34.4001C127 36.0001 130.333 39.0668 132.867 41.0668ZM168.333 38.1335C168.733 39.3335 170.6 42.0001 172.333 44.1335C175.4 47.6001 176.467 50.0001 175.133 50.0001C174.867 50.0001 173 47.4668 170.867 44.2668C168.733 41.2001 165.933 37.8668 164.733 36.9335C163.4 36.0001 162.333 34.6668 162.333 33.8668C162.333 32.0001 167.533 35.7335 168.333 38.1335ZM265.533 36.1335C265.933 37.2001 267.133 37.6001 268.6 37.0668C270.333 36.5335 270.6 36.6668 269.533 37.8668C268.6 38.9335 266.867 38.6668 263 36.8001C258.333 34.5335 258.2 34.2668 261.4 34.2668C263.267 34.2668 265.133 35.2001 265.533 36.1335ZM289.8 52.9335C289 53.4668 287.133 52.0001 285.4 49.6001C281 43.6001 281.667 42.6668 286.733 47.7335C289.133 50.1335 290.467 52.4001 289.8 52.9335ZM67.3999 50.9335C65.3999 52.9335 63.2666 54.1335 62.8666 53.6001C61.5333 52.2668 66.3333 47.3335 68.8666 47.3335C70.3333 47.3335 69.9333 48.2668 67.3999 50.9335ZM193 48.6668C193 49.3335 192.6 50.0001 192.067 50.0001C191.4 50.0001 189.933 51.8668 188.733 54.0001C186.467 58.1335 186.733 66.0002 189.133 66.0002C189.8 66.0002 190.333 67.0668 190.333 68.4002C190.333 70.6668 195.133 74.0002 198.467 74.0002C199.133 74.0002 201.4 72.5335 203.4 70.6668C207.4 66.9335 209.267 66.4002 208.2 69.3335C207.667 70.4002 206.6 71.3335 205.533 71.3335C204.467 71.3335 203.667 72.0002 203.667 72.8002C203.667 73.6002 202.333 76.1335 200.733 78.4002C199.133 80.6668 198.467 82.0002 199.4 81.4668C200.467 80.9335 200.733 81.2002 200.2 82.5335C199.8 83.6002 200.2 85.8668 201 87.6002C202.467 90.5335 202.467 90.5335 199.667 87.3335C197.533 84.9335 197 84.6668 197.533 86.4002C197.933 87.8668 197.8 88.5335 197 88.0002C196.2 87.6002 195.667 86.5335 195.667 85.7335C195.667 83.7335 189.933 72.1335 188.733 71.6002C188.067 71.3335 187.667 70.2668 187.667 69.2002C187.667 66.8002 179.533 54.0001 178.067 54.0001C177.4 54.0001 177 53.0668 177 52.0001C177 49.7335 178.6 49.4668 180.467 51.3335C182.067 52.9335 190.333 50.5335 190.333 48.5335C190.333 47.8668 191 47.3335 191.667 47.3335C192.467 47.3335 193 47.8668 193 48.6668ZM145.533 54.2668C147 56.6668 149.267 60.0001 150.733 61.6001C152.2 63.3335 152.733 64.6668 151.933 64.6668C151 64.6668 148.733 62.1335 146.867 58.9335C144.867 55.8668 142.733 53.0668 142.2 52.9335C140.733 52.2668 140.6 50.0001 142.067 50.0001C142.6 50.0001 144.2 52.0001 145.533 54.2668ZM260.2 94.2668C259.8 98.9335 259.133 102.933 258.867 103.2C257.933 104.133 258.333 90.4002 259.133 88.1335C260.733 84.0002 261.133 86.1335 260.2 94.2668ZM253 144C253 148.8 252.467 152.667 251.8 152.667C251.133 152.667 250.733 151.6 251 150.267C251.267 149.067 251.533 145.2 251.533 141.6C251.667 138.133 251.933 135.333 252.333 135.333C252.733 135.333 253 139.2 253 144ZM208.467 186.8C208.067 187.867 208.6 188.667 209.533 188.667C210.467 188.667 212.067 189.6 213 190.667C213.933 191.733 216.867 192.8 219.533 192.933L224.333 193.067L219.4 193.6C215.8 194 214.733 194.667 215.267 196.133C215.667 197.333 215.133 198 213.533 198C211.4 198 211.267 198.267 213 199.333C214.067 200 221 200.667 228.467 200.667H241.8L243.133 212C243.8 218.267 244.067 223.333 243.8 223.333C243.533 223.333 237.533 219.2 230.467 214.133C213.933 202.4 210.333 200.133 210.333 201.467C210.467 203.467 216.733 210 218.6 210C219.933 210 219.933 210.267 218.467 211.2C217.267 212 215.933 211.733 214.733 210.533C213.667 209.467 212.467 208.667 211.933 208.667C211.4 208.667 208.867 206.8 206.333 204.667C201.667 200.667 195.933 198.8 191 199.867C189.533 200.267 187.8 200.533 187.267 200.533C186.6 200.667 186.6 201.2 187 202C187.4 202.667 187.267 203.333 186.467 203.333C185.667 203.333 184.6 204.8 184.2 206.8C183.533 209.2 184.2 211.067 186.467 213.467C188.067 215.2 188.733 216.667 187.933 216.667C187.133 216.667 186.067 216 185.667 215.333C185.133 214.533 184.2 214.267 183.533 214.8C182.867 215.2 181.533 214.933 180.6 214.267C178.467 212.533 171.533 212.667 172.6 214.4C173.133 215.2 172.6 215.467 171.4 214.933C170.2 214.533 168.6 214.933 167.8 215.733C167 216.533 166.333 216.667 166.333 216.133C166.333 214.8 171.933 210.133 173.667 210C175.133 210 180.067 202 179.133 201.067C178.6 200.4 162.2 213.333 125.267 243.6C111.133 255.2 99.3999 264.667 99.1333 264.667C98.8666 264.667 96.7333 261.467 94.3333 257.733L90.0666 250.667L93.1333 248.667C94.8666 247.6 110.6 236.267 128.2 223.733L160.333 200.667H167.667C171.667 200.667 175.933 200 177 199.333C178.733 198.267 178.6 198 176.733 198C174.067 198 173.4 195.333 176.067 195.333C177.133 195.333 177 194.8 175.667 194C174.333 193.067 176.467 192.8 183 192.933C197.933 193.2 202.067 192.8 204.333 190.533C205.533 189.333 206.067 187.333 205.667 185.867C205 184 205.267 183.6 207 184.133C208.2 184.667 208.867 185.867 208.467 186.8ZM162.6 194C157 195.333 155.667 196.667 159.8 196.8C162.733 196.933 162.6 196.933 159 198.267C152.6 200.267 149 202.267 149.667 203.467C150.067 204 148.467 205.067 146.2 205.867C143.933 206.667 140.867 208.667 139.533 210.267C138.067 211.733 136.6 212.8 136.2 212.267C135.8 211.867 137.267 209.6 139.533 207.2C141.8 204.933 143.667 202.4 143.667 201.733C143.667 200 139.4 202.533 124.2 213.467C116.733 218.933 110.333 223.333 109.933 223.333C109.667 223.333 109.8 220.8 110.467 217.6C111 214.533 111.533 209.467 111.667 206.267V200.667H125.4C132.867 200.667 139.933 200 141 199.333C142.6 198.267 142.333 198 139.667 198C136.467 197.867 136.467 197.867 139 196.4C141.267 195.067 141.267 194.8 139.267 194.133C138.067 193.733 143.8 193.333 152.067 193.2C161.267 193.067 165.267 193.467 162.6 194ZM215.8 216.8C227.133 224.933 242.467 235.867 249.933 241.067L263.533 250.4L260.067 256.533C258.067 259.867 256.067 263.2 255.533 263.867C255 264.533 250.733 261.733 245.933 257.867C241.267 253.867 225.667 241.067 211.267 229.467L185 208.267L189.267 205.067C191.667 203.467 193.933 202 194.467 202C195 202 204.6 208.667 215.8 216.8ZM186.467 222.933L195.8 230.667L176.067 231.333C159 231.867 156.867 232.267 160.067 233.6C162.2 234.533 165 235.333 166.6 235.333C168.2 235.333 169 235.733 168.6 236.267C168.067 236.667 163.533 237.2 158.6 237.333C153.533 237.6 147.533 238.133 145.4 238.533C140.067 239.733 139 237.867 143.133 234.667C145 233.2 147.8 230.667 149.533 229.067C151.267 227.467 153 226.4 153.4 226.8C153.8 227.2 155.267 226 156.733 224.133C158.067 222.267 159.667 221.2 160.2 221.6C161.4 222.933 161.133 224.933 159.8 224.133C158.6 223.333 156.6 228.667 157.667 229.733C158.2 230.4 173.8 218.667 175 216.667C176.2 214.667 176.333 214.667 186.467 222.933ZM251.667 228.933C251.667 230.533 253 233.2 254.6 234.933C259.267 239.867 254.867 238.533 244.2 231.733C238.733 228.4 234.333 225.467 234.333 225.2C234.333 225.067 235.267 224.533 236.467 224.133C237.8 223.6 238.2 223.867 237.533 224.933C236.867 226 237.267 226.133 238.867 225.6C240.2 225.067 242.333 224.667 243.8 224.667C245.8 224.667 246.333 223.733 246.333 220.4V216L249 221.067C250.467 223.733 251.667 227.333 251.667 228.933ZM201.4 227.333C211.533 234.667 214.6 237.733 213 238.667C212.333 239.067 211.133 239.2 210.6 238.8C210.067 238.533 205.267 238 199.933 237.867C190.2 237.467 186.867 235.2 193.667 233.467C197.667 232.4 198.067 228.933 194.467 225.067C193 223.467 192.2 221.867 192.6 221.467C193.133 220.933 193.8 221.067 194.2 221.6C194.6 222.267 197.933 224.8 201.4 227.333ZM8.46659 226C9.66659 225.733 11.6666 230.133 10.8666 231.6C10.5999 232 11.6666 232.133 13.1333 231.733C15.1333 231.2 15.7999 231.467 15.5333 232.533C15.1333 233.467 14.4666 234.133 13.9333 234.133C13.3999 234 11.9333 234 10.5999 234C8.06659 234 4.99993 228.933 4.99993 224.933C4.99993 223.2 5.26659 223.067 6.19993 224.4C6.73326 225.467 7.79993 226.133 8.46659 226ZM347 231.2C346.067 234.4 341.533 235.6 339.667 233.333C338.6 232 338.867 231.333 340.733 230.8C342.2 230.267 343.8 228.533 344.2 226.933C345 224.267 345.133 224.133 346.467 226.4C347.267 227.6 347.533 229.867 347 231.2ZM289.533 244.667C291.267 244.667 292.6 245.467 292.6 246.667C292.6 248 292.067 248.267 291 247.333C289.8 246.4 289.133 246.533 288.6 248C287.533 250.4 283.667 249.2 283.667 246.4C283.667 245.333 283.133 244.8 282.467 245.2C280.6 246.4 279.667 242.533 281.4 240.8C282.333 239.867 283.267 240.133 284.6 242C285.667 243.467 287.8 244.667 289.533 244.667ZM74.3333 242.267C74.3333 244.133 71.6666 248.667 71.6666 246.933C71.6666 246.267 70.5999 246.8 69.3999 248.133C67.2666 250.133 67.1333 250.133 66.3333 247.867C65.6666 246.267 66.3333 244.667 68.1999 243.067C71.5333 240.4 74.3333 240 74.3333 242.267ZM230.333 258.667C252.467 276.533 251.533 275.333 253.533 290.267L254.333 296.667H177H99.6666L100.467 290.933C103 274.267 101.267 276.8 123.667 258.667L144.333 242H177H209.667L230.333 258.667ZM92.5999 244.8C91.3999 245.467 89.3999 247.867 88.3333 250C85.7999 255.067 83.3999 255.2 83.9333 250.4C84.3333 246.8 88.7333 243.333 92.9999 243.333C94.5999 243.467 94.4666 243.733 92.5999 244.8ZM267.133 246.533C270.6 249.467 270.733 249.733 268.6 251.867C266.067 254.533 265.533 257.333 267.933 255.867C268.867 255.333 269 255.467 268.467 256.4C267.933 257.2 266.733 257.6 265.667 257.2C264.2 256.533 264.067 255.733 265.4 253.067C266.733 250 266.467 249.333 263.267 246.533C260.867 244.4 260.2 243.333 261.533 243.333C262.6 243.333 265.133 244.8 267.133 246.533ZM233.8 253.467C237.8 256.133 240.867 258.667 240.467 258.933C240.067 259.333 236.467 257.2 232.2 254.133C222.733 247.333 223.933 246.933 233.8 253.467ZM123.933 252.267C122.867 252.667 120.333 254.667 118.2 256.8C116.2 258.8 114.067 260 113.8 259.467C113 258.267 124.067 249.867 125 250.933C125.4 251.333 124.867 252 123.933 252.267ZM101.133 267.2C101.8 266.133 102.733 266.133 104.467 267.2C105.933 268 106.2 268.667 105.267 268.667C104.333 268.667 102.467 270.667 101 272.933C99.5333 275.333 98.3333 276.533 98.3333 275.6C98.3333 274.667 97.7999 274.133 97.1333 274.667C95.3999 275.6 94.4666 273.867 93.6666 268.133L93.1333 263.2L96.5999 266C99.1333 267.867 100.467 268.267 101.133 267.2ZM261 266.267C260.333 268 259.533 270.933 259.133 272.933C258.333 276.533 254.333 278.267 254.333 275.2C254.333 274.4 252.867 272.533 251 271.067C247.133 268.133 247.933 265.467 252.333 266.267C253.933 266.667 256.467 266.133 257.8 265.067C261.267 262.533 262.467 262.933 261 266.267ZM259.667 294.667C258.6 295.867 258.867 296.667 260.6 297.333C262.867 298.133 262.867 298.267 260.6 299.467C259.4 300.267 258.6 301.333 259 302.133C259.533 302.8 258.6 303.333 257.133 303.333C255.533 303.333 254.333 302.8 254.333 302C254.333 301.2 227.267 300.667 177 300.667C128.067 300.8 99.6666 301.2 99.6666 302C99.6666 304.133 97.1333 303.467 94.3333 300.667C91.9333 298.267 91.7999 297.867 93.7999 297.067C94.8666 296.667 95.2666 295.867 94.5999 295.467C93.7999 294.933 94.0666 294 95.1333 292.933C96.7333 291.6 96.9999 291.6 96.9999 293.2C96.9999 294.267 97.9333 296.133 99.1333 297.2C101 299.067 109.8 299.333 176.867 299.333C238.733 299.333 253 299.067 255 297.467C256.867 296.133 257.667 293.467 258.2 287.2L258.867 278.667L259.933 285.867C260.6 290.4 260.6 293.6 259.667 294.667Z" fill="#6528F7"/>
</svg>
