<svg width="492" height="512" viewBox="0 0 492 512" fill="none" xmlns="http://www.w3.org/2000/svg">
<path d="M9.46068 512C9.06645 496.976 16.03 484.699 24.4842 472.997C31.0636 463.89 37.5961 454.75 44.1135 445.598C48.2688 439.764 52.2646 433.813 56.5089 428.045C59.6143 423.825 66.3036 424.255 71.5752 427.979C82.6877 435.827 93.9101 443.392 105.976 449.94C119.19 457.11 133.116 463.737 143.677 475.124C147.454 479.196 146.679 483.608 141.32 484.723C131.292 486.809 121.135 488.271 111.033 490.003C102.843 491.407 94.6196 492.647 86.4744 494.277C72.6048 497.052 58.7787 500.047 44.9553 503.046C43.7314 503.311 42.6708 504.305 41.5174 504.929C40.8241 505.304 39.9762 506.053 39.4048 505.894C31.8444 503.782 26.1896 507.978 20.6592 511.746C17.3071 512 13.6142 512 9.46068 512ZM93.0646 455.562C91.2004 454.452 89.3363 453.342 87.564 452.287C85.5341 454.911 83.6391 457.159 81.9633 459.56C73.1645 472.167 63.0327 469.096 55.5026 461.028C53.4312 458.808 51.171 456.765 49.3631 454.999C43.5916 462.486 38.2591 469.404 32.7691 476.527C41.7993 479.522 44.4948 486.923 46.2348 494.362C67.4976 490.292 88.5088 486.271 108.704 482.405C109.152 477.626 108.89 472.598 110.278 468.077C111.399 464.426 110.085 463.319 107.476 462.14C102.892 460.067 98.301 458.008 93.0646 455.562ZM59.9304 439.41C58.0849 442.353 56.2395 445.295 54.403 448.224C57.7368 450.814 61.3353 453.553 64.8688 456.374C67.3846 458.382 69.7461 458.037 71.6682 455.753C74.207 452.735 76.4771 449.491 79.0325 446.121C76.2153 444.483 73.9305 443.154 71.0791 441.496C71.2363 445.798 70.0004 448.474 66.0739 447.861C64.6053 447.632 62.5867 446.091 62.1875 444.743C60.9393 440.527 64.2808 439.546 67.4028 438.694C64.9359 435.903 62.4933 434.629 59.9304 439.41ZM18.9288 499.37C18.6067 500.467 18.2846 501.564 17.9091 502.843C24.6331 500.46 30.7026 498.308 37.179 496.013C35.2535 490.95 34.7658 484.847 27.8754 481.621C24.8641 487.434 21.9705 493.019 18.9288 499.37ZM120.072 469.934C119.666 473.532 119.26 477.131 118.891 480.403C125.187 479.705 130.696 479.094 136.205 478.484C136.355 478.066 136.504 477.648 136.654 477.231C131.254 474.552 125.853 471.873 120.072 469.934Z" fill="#6528F7"/>
<path d="M302.572 1.90694e-08C304.153 2.96969 305.435 5.89811 306.404 8.92641C306.893 10.4519 307.4 12.3934 306.863 13.7309C305.96 15.9806 304.671 18.8471 302.749 19.741C299.617 21.1969 298.909 17.8016 297.93 15.6076C297.412 14.4476 296.906 13.2824 296.948 13.379C282.398 14.0007 268.461 14.5961 253.84 15.2208C255.137 16.3738 255.913 17.5039 256.973 17.9339C264.615 21.035 272.327 23.9619 279.987 27.0187C282.226 27.9122 284.647 28.6919 286.502 30.1407C291.508 34.0487 290.981 38.2259 285.997 42.0692C278.516 47.8384 269.587 49.5761 260.865 52.0197C258.446 52.6973 256.085 53.578 253.045 54.5808C261.092 55.8089 268.333 56.992 275.601 57.9753C277.765 58.268 280.012 58.1154 282.206 57.9596C284.865 57.7709 286.03 56.4742 286.148 53.527C286.237 51.3242 287.162 48.6841 288.643 47.1141C291.107 44.501 294.265 45.7065 294.975 49.2536C296.092 54.8299 297.248 60.4214 297.844 66.0638C298.014 67.6708 296.625 70.5863 295.383 70.9474C293.17 71.5907 289.635 71.6446 288.277 70.302C286.425 68.473 285.016 69.0677 283.097 68.8719C275.158 68.0619 267.253 66.8801 259.359 65.6837C254.373 64.9281 249.361 64.1616 244.495 62.889C242.209 62.2912 238.965 60.87 238.444 59.1349C237.781 56.9266 238.702 53.4305 240.23 51.5261C245.143 45.4068 252.635 43.4608 259.697 41.0471C264.652 39.3535 269.731 38.0225 274.624 36.0289C263.877 33.9995 255.602 27.588 246.924 22.1921C243.89 20.3051 241.491 16.3938 243.356 12.8486C244.844 10.0194 248.084 6.81053 250.99 6.30221C256.82 5.28223 262.965 6.23913 268.958 5.92975C277.484 5.48954 286.002 4.76194 294.488 3.83334C295.65 3.70612 296.609 1.71587 297.331 0.294089C298.714 -2.89083e-06 300.429 -2.98093e-06 302.572 1.90694e-08Z" fill="#6528F7"/>
<path d="M47.259 213.371C56.5137 200.46 68.5534 191.458 81.7426 183.547C98.4039 173.552 116.908 168.446 134.928 161.951C141.614 159.541 148.366 156.696 154.231 152.77C164.354 145.993 175.608 143.637 187.243 141.997C196.631 140.673 205.981 138.751 215.414 138.157C226.747 137.443 238.126 137.642 249.262 140.904C261.739 144.559 274.314 144.711 287.169 142.127C300.279 139.491 313.619 138.012 326.843 135.93C341.927 133.554 357.002 134.111 370.766 140.633C383.512 146.672 395.559 154.357 407.347 162.172C412.957 165.89 418.131 168.881 424.981 170.376C438.561 173.341 448.105 182.309 452.91 195.517C455.62 202.968 457.551 210.71 459.632 218.376C460.085 220.044 459.445 221.98 459.717 223.73C460.266 227.267 459.901 231.957 462.015 234.066C471.267 243.297 476.931 254.706 482.906 265.936C486.143 272.02 489.354 278.315 491.146 284.903C492.373 289.418 491.417 294.63 490.937 299.482C490.117 307.783 489.552 316.194 487.691 324.286C485.444 334.054 482.961 343.882 475.326 351.47C469.898 356.865 470.3 364.208 471.164 371.075C472.958 385.34 472.369 399.121 465.984 412.372C459.896 425.008 454.208 437.753 445.154 448.768C434.406 461.842 421.828 470.683 404.323 472.204C394.305 473.074 384.882 471.817 375.478 468.955C373.624 468.391 371.351 467.853 370.221 466.506C366.406 461.959 361.192 462.006 356.255 462.126C349.22 462.297 342.206 463.873 335.181 463.884C321.677 463.906 310.338 457.881 300.13 449.583C292.388 443.289 287.769 435.036 284.806 425.501C283.556 421.476 280.72 417.669 277.79 414.52C274.994 411.514 271.269 410.673 266.601 411.513C255.457 413.518 246.305 420.209 235.822 423.491C224.542 427.022 213.016 428.189 201.898 422.396C200.757 421.801 199.447 421.152 198.744 420.155C192.192 410.878 182.877 411.581 173.497 413.302C157.127 416.306 140.534 420.316 124.075 417.639C105.85 414.675 87.3758 410.489 74.0685 395.567C73.5157 394.947 72.6737 394.477 72.3658 393.764C68.4738 384.75 59.9629 380.468 53.1004 374.39C36.1924 359.417 24.9802 341.275 21.7927 318.244C19.4763 301.507 23.0687 286.38 30.6845 271.937C35.189 263.394 35.6447 254.176 37.0507 245.024C38.732 234.08 41.2477 223.339 47.259 213.371ZM42.3149 333.889C41.9756 333.721 41.6362 333.553 41.2969 333.385C41.5043 333.948 41.7117 334.511 42.005 335.805C51.3052 356.178 65.6184 371.643 86.1272 381.138C87.2805 381.672 88.6292 383.348 88.5949 384.452C88.559 385.605 86.9596 386.71 86.0512 387.827C114.431 407.432 161.912 403.915 185.841 387.167C173.875 387.078 168.771 376.895 161.214 371.051C150.497 378.349 139.061 382.913 126.73 384.872C120.879 385.802 114.967 384.929 109.942 381.033C107.117 378.843 105.779 373.672 107.649 370.92C110.147 367.245 112.88 367.722 116.525 369.777C119.656 371.542 123.91 373.484 127.017 372.717C136.412 370.396 145.532 366.906 154.637 363.542C155.687 363.153 156.87 360.353 156.459 359.234C154.04 352.65 151.167 346.232 148.37 339.575C138.13 341.686 132.597 338.915 133.319 332.355C137.431 330.666 141.28 329.482 144.719 327.564C148.399 325.51 151.622 322.657 155.171 320.347C159.91 317.262 166.806 318.685 167.413 323.282C167.775 326.023 166.192 329.697 164.273 331.894C161.804 334.72 161.28 337.625 162.361 340.533C165.351 348.57 167.994 356.932 172.403 364.174C175.365 369.04 180.783 372.69 185.696 376.003C189.609 378.64 199.086 377.732 200.831 375.566C207.434 367.373 212.512 358.319 215.257 348.149C215.783 346.204 215.106 343.351 213.936 341.629C207.929 332.791 200.536 324.676 199.319 313.467C199.136 311.784 201.158 309.863 202.159 308.052C203.437 309.306 205.688 310.466 205.82 311.83C206.334 317.147 209.66 320.451 213.246 323.612C215.932 325.98 218.722 328.319 221.772 330.167C226.431 332.99 231.116 336.17 236.237 337.704C240.39 338.948 245.207 338.131 249.72 337.974C254.155 337.819 258.601 336.958 262.998 337.199C264.723 337.293 267.17 339.222 267.797 340.879C268.757 343.418 267.869 345.969 264.58 347.07C262.305 347.831 260.368 349.732 258.077 350.294C252.122 351.756 246.065 353.61 240.029 353.687C234.846 353.754 229.635 351.582 224.048 350.312C225.142 370.928 212.55 384.164 199.003 396.737C201.202 398.253 204.237 399.586 206.207 401.846C212.06 408.563 218.869 409.155 226.606 406.092C236.41 402.21 246.246 398.41 256.017 394.449C258.813 393.316 261.762 392.157 264.07 390.301C271.37 384.43 278.002 377.66 285.621 372.267C299.681 362.315 308.407 348.629 314.858 333.198C317.263 327.446 316.756 327.189 310.648 324.984C303.813 322.516 298.783 318.083 297.45 310.673C297.154 309.029 298.419 305.862 299.63 305.475C301.516 304.872 305.22 305.329 305.952 306.602C308.155 310.436 311.18 310.787 314.996 311.111C321.947 311.703 328.915 312.637 335.715 314.151C337.728 314.6 339.202 317.472 340.922 319.233C339.213 320.834 337.57 322.515 335.763 323.995C335.053 324.577 333.745 324.475 333.114 325.096C331.923 326.268 330.607 327.594 330.082 329.111C328.394 333.999 327.729 339.356 325.409 343.885C321.365 351.777 316.381 359.186 311.815 366.756C326.133 367.929 340.572 371.119 355.443 366.309C353.79 356.072 352.073 346.102 350.603 336.096C349.606 329.314 348.396 322.486 348.341 315.67C348.303 310.891 350.106 306.107 350.992 301.309C353.504 287.717 355.949 274.153 363.369 262.06C367.497 255.334 367.244 254.888 365.264 246.559C364.962 245.289 364.843 243.884 365.039 242.604C366.084 235.808 367.257 229.032 368.427 222.001C367.566 222.001 366.665 222.225 365.941 221.962C363.007 220.895 358.639 220.39 357.647 218.316C356.653 216.238 358.384 212.057 360.115 209.661C362.752 206.011 366.072 202.623 369.729 199.998C374.694 196.435 380.117 193.275 388.149 194.339C386.329 196.03 385.432 197.601 384.285 197.812C375.02 199.512 369.293 206.24 363.186 212.385C360.386 215.202 362.759 216.955 365.156 217.837C366.544 218.348 368.666 218.168 369.957 217.427C376.687 213.565 383.534 209.797 389.728 205.177C391.873 203.577 392.259 199.618 393.754 195.996C394.118 196.318 395.385 197 395.993 198.059C398.018 201.59 396.929 204.942 394.092 207.263C388.175 212.104 381.945 216.561 376.762 220.481C376.893 223.2 377.543 226.048 377.066 228.694C375.06 239.83 382.136 254.041 393.841 254.25C398.685 254.336 403.605 256.439 408.246 258.25C409.87 258.883 411.898 261.533 411.712 263.006C411.46 264.998 409.65 267.528 407.815 268.457C399.932 272.45 391.521 272.253 383.579 268.988C378.904 267.067 376.719 268.723 373.946 271.95C367.065 279.956 364.998 289.652 363.252 299.584C364.924 299.02 366.415 298.437 367.95 298.013C381.413 294.294 395.212 293.119 409.026 294.206C415.66 294.729 422.422 296.732 428.579 299.352C435.305 302.213 438.766 308.492 440.307 315.683C442.685 313.875 444.558 311.592 446.902 310.9C449.491 310.134 452.902 310.04 455.197 311.18C456.549 311.851 457.304 315.737 456.736 317.721C456.108 319.912 453.358 321.398 452.063 323.515C448.206 329.818 441.208 335.238 446.717 344.304C447.648 345.835 446.125 350.199 444.393 351.636C442.608 353.117 439.01 353.383 436.513 352.819C432.284 351.865 429.083 345.769 429.002 340.198C428.925 334.961 429.648 329.94 427.501 324.568C422.592 312.28 420.424 309.461 407.567 309.154C393.984 308.828 380.369 309.582 366.779 310.125C364.829 310.202 361.561 311.42 361.275 312.658C360.371 316.567 360.162 320.77 360.482 324.796C360.973 330.969 362.294 337.071 362.954 343.237C363.649 349.72 363.981 356.242 364.498 363.107C366.191 362.324 367.749 361.823 369.065 360.955C374.743 357.211 382.572 356.65 385.713 349.032C386.672 346.707 390.888 347.769 391.976 350.331C394.423 356.09 390.363 366.511 384.246 370.991C374.322 378.259 363.536 382.692 351.142 384.234C334.027 386.365 317.987 384.109 302.817 376.289C295.024 382.379 287.178 388.51 279.025 394.881C290.409 400.524 297.208 409.966 300.414 421.972C304.046 435.574 322.42 447.295 334.085 446.035C341.762 445.206 349.474 444.71 357.157 443.931C358.173 443.829 359.212 443.07 360.066 442.395C369.961 434.571 377.701 424.667 383.957 414.018C387.424 408.116 393.895 401.728 389.037 393.27C388.821 392.894 388.854 392.221 389.032 391.795C391.701 385.38 394.02 378.774 397.274 372.666C399.043 369.344 404.548 369.5 405.68 372.578C406.328 374.341 405.45 377.115 404.418 378.964C400.924 385.225 401.639 388.538 407.752 391.185C409.043 391.744 410.571 391.923 411.998 391.965C415.662 392.072 419.387 391.605 422.981 392.115C426.745 392.65 430.289 394.397 430.928 398.755C431.532 402.876 429.039 405.525 425.302 406.127C419.706 407.029 413.836 408.223 408.382 407.373C404.265 406.733 402.526 407.944 401.103 410.844C399.752 413.597 399.52 417.078 397.715 419.396C390.704 428.4 383.262 437.069 375.838 446.035C378.181 447.31 381.247 450.005 384.71 450.693C404.592 454.637 417.446 451.15 430.811 434.199C436.922 426.448 441.725 417.646 446.93 409.202C454.264 397.303 456.098 384.504 454.247 370.62C452.947 360.869 453.599 351.158 460.473 342.566C464.072 338.068 466.399 332.098 467.822 326.422C469.912 318.078 470.397 309.346 472.101 300.888C473.413 294.379 473.467 288.363 470.109 282.36C463.424 270.41 457.556 257.947 448.149 247.761C446.085 245.526 443.636 243.093 440.885 242.147C431.107 238.785 420.994 236.383 411.269 232.889C406.368 231.129 405.392 227.414 406.917 221.508C416.962 229.409 428.848 223.799 439.573 227.337C441.359 217.329 436.957 209.594 434.076 201.542C431.481 194.291 426.042 190.681 418.648 188.884C409.551 186.674 399.858 186.521 391.533 181.334C390.307 180.57 388.112 180.6 386.652 181.101C380.096 183.351 373.072 184.978 367.282 188.556C357.885 194.363 349.442 201.691 340.37 208.054C332.241 213.755 329.019 223.007 324.421 230.899C320.343 237.897 319.766 246.935 317.641 255.079C318.444 255.555 318.826 255.803 319.227 256.017C323.628 258.368 323.683 262.424 322.724 266.369C321.743 270.409 318.309 270.818 314.571 271.109C307.91 271.628 301.301 272.818 294.67 273.718C293.861 273.828 292.796 274.242 292.277 273.888C290.763 272.855 288.157 271.231 288.345 270.333C288.777 268.264 290.181 265.771 291.946 264.719C298.504 260.81 306.398 258.314 305.912 248.427C305.872 247.6 305.744 246.624 306.103 245.958C307.702 242.992 306.276 242.547 303.595 241.913C294.54 239.771 286.594 242.413 278.744 246.575C275.324 248.389 272.095 249.564 272.806 254.601C273.117 256.799 272.074 259.506 270.866 261.513C269.595 263.625 267.695 265.993 265.531 266.798C261.325 268.363 258.013 265.072 258.034 259.716C258.07 250.352 260.721 240.705 254.264 232.133C253.619 231.276 254.604 227.762 255.439 227.513C257.244 226.975 259.785 227.179 261.396 228.137C263.615 229.458 265.382 231.647 267.104 233.668C268.805 235.665 270.17 235.641 272.393 234.249C275.677 232.193 279.171 230.19 282.852 229.108C292.442 226.291 301.581 228.251 310.125 233.037C314.839 223.267 319.466 213.675 324.306 203.643C317.653 197.855 309.056 195.053 299.863 194.078C293.255 193.376 286.886 193.013 284.264 201.877C282.985 206.201 276.487 206.188 274.224 202.365C273.028 200.345 271.963 197.739 272.153 195.51C272.581 190.506 273.511 185.484 274.844 180.637C275.942 176.642 277.523 172.654 279.63 169.103C281.137 166.564 283.941 164.902 287.273 166.702C290.28 168.327 290.388 170.939 289.615 173.854C289.183 175.484 288.879 177.149 288.462 179.048C306.355 178.207 322.469 181.249 334.047 196.279C347.863 183.719 362.575 173.316 381.634 168.65C378.948 167.071 377.279 166.103 375.621 165.115C364.219 158.315 352.166 153.508 338.63 154.07C332.42 154.327 326.214 155.15 320.053 156.041C310.209 157.465 300.372 158.983 290.591 160.782C278.061 163.086 265.731 163.866 253.197 160.21C243.194 157.293 233.13 154.223 222.376 154.912C215.157 155.374 207.886 155 200.557 155C197.881 167.585 195.423 178.982 193.046 190.396C192.046 195.199 189.736 196.353 185.29 194.083C181.036 191.911 179.299 187.793 180.482 182.96C182.496 174.731 184.448 166.487 186.71 157.068C178.395 160.557 170.705 163.697 163.099 167.028C160.729 168.065 158.419 169.403 156.379 170.986C153.408 173.29 149.904 175.461 148.06 178.546C144.432 184.61 141.559 191.167 138.798 197.7C135.284 206.016 132.191 214.511 128.379 223.159C128.329 223.61 128.28 224.061 128.23 224.513C128.711 224.24 129.191 223.968 130.189 223.24C138.691 218.488 146.933 213.168 155.758 209.122C167.645 203.673 180.602 205.024 193.259 205.01C203.088 204.998 212.104 208.024 220.501 212.353C223.217 205.537 225.778 198.517 228.881 191.746C229.637 190.095 232.614 187.954 233.782 188.352C235.549 188.955 237.451 191.423 237.837 193.385C238.892 198.746 236.703 203.552 234.38 208.395C231.649 214.091 228.729 220.163 233.204 226.383C234.741 228.519 237.269 230.013 238.522 232.259C239.532 234.07 240.236 237.119 239.359 238.608C238.535 240.007 235.156 241.059 233.448 240.522C230.488 239.591 227.546 237.713 225.356 235.485C223.385 233.479 222.502 230.429 220.997 227.924C220.394 226.921 219.572 225.721 218.574 225.345C215.272 224.099 211.845 223.188 208.423 222.135C208.221 243.098 210.985 256.602 230.691 265.83C234.288 262.029 237.822 257.39 243.955 259.157C246.531 259.899 249.182 261.934 250.654 264.145C251.192 264.952 248.459 268.003 247.122 269.964C246.515 270.853 245.336 271.458 244.989 272.402C241.913 280.747 238.94 289.131 235.995 297.523C234.91 300.616 233.755 303.141 229.627 303.078C222.441 302.968 218.209 297.249 220.488 290.014C221.8 285.849 223.367 281.765 224.82 277.645C211.508 274.45 202.642 265.607 199.437 253.018C196.882 242.988 196.934 232.067 197.359 221.603C197.561 216.624 195.831 216.755 192.715 217.038C186.845 217.571 181.009 218.694 175.134 218.931C157.579 219.639 144.133 228.938 131.152 239.358C128.719 241.311 128.255 243.639 129.741 246.362C134.639 255.343 139.544 264.32 145.052 274.407C146.578 272.29 147.009 271.555 147.57 270.937C151.164 266.978 154.609 262.86 158.458 259.163C161.373 256.364 167.387 258.345 167.855 262.27C168.238 265.486 168.381 269.119 167.274 272.056C162.965 283.49 154.687 291.002 142.749 293.879C135.621 295.597 127.753 292.327 125.12 286.954C124.508 285.706 124.604 283.203 125.447 282.393C126.383 281.493 128.556 281.666 130.173 281.745C132.259 281.846 134.327 282.317 136.975 282.714C133.137 278.398 130.187 274.94 127.076 271.633C124.901 269.319 122.464 265.301 120.217 265.351C111.539 265.545 102.889 267.066 93.4799 268.182C101.008 278.989 100.747 289.24 97.6745 299.854C97.095 301.856 96.8261 304.088 97.0367 306.149C97.4643 310.337 95.0873 313.508 90.8375 314.01C85.2389 314.673 81.0966 311.511 77.2916 308.338C75.161 306.562 75.1402 302.817 78.4994 302.184C84.7751 301.003 85.7038 297.277 85.0436 292.009C84.8842 290.738 85.4566 289.386 85.3658 288.094C85.0748 283.954 84.8699 279.778 84.0765 275.724C83.8794 274.717 81.101 273.121 80.3341 273.494C74.1536 276.497 68.0092 279.788 64.5085 286.106C63.1089 288.631 62.5301 291.599 61.2883 294.229C60.0264 296.901 57.3786 297 56.491 294.618C54.9684 290.533 53.6876 286.002 53.8523 281.718C54.1742 273.343 60.8845 269.04 67.0346 265.08C81.854 255.538 98.1583 251.48 115.617 253.454C114.737 247.439 113.187 241.509 113.132 235.565C112.983 219.492 118.616 204.967 126.327 191.126C127.844 188.403 129.093 185.531 131.002 181.635C128.419 182.4 127.372 182.682 126.342 183.019C106.78 189.41 88.8723 198.903 73.2578 212.34C60.3438 223.452 56.9366 238.855 54.8908 254.872C54.1187 260.917 52.9009 267.15 50.4856 272.687C46.0877 282.769 39.3735 291.832 37.4529 303.006C36.5591 308.207 36.0836 313.118 41.195 316.791C43.4656 318.423 45.2861 320.696 47.2483 322.739C51.9255 327.607 57.7836 330 64.3636 329.929C79.3349 329.768 92.0491 323.312 103.727 314.626C106.706 312.411 109.984 311.333 112.41 313.503C114.168 315.075 115.155 319.004 114.528 321.362C113.774 324.198 111.44 327.277 108.916 328.848C102.594 332.784 96.069 336.742 89.103 339.228C73.0468 344.957 57.0966 345.998 42.3149 333.889Z" fill="#6528F7"/>
<path d="M170.783 109.569C175.103 107.236 179.393 105.523 183.033 102.905C194.301 94.7996 203.107 84.9733 202.93 69.9373C202.902 67.5616 202.074 65.1544 201.367 62.838C200.474 59.9154 200.813 57.1488 203.776 56.2049C207.028 55.1687 209.24 57.5715 209.896 60.4889C211.605 68.0953 211.421 75.6375 209.413 83.3252C206.795 93.3515 199.663 99.6343 192.375 105.922C189.32 108.557 186.019 110.906 181.655 114.3C199.524 112.66 216.125 111.136 233.951 109.5C231.199 107.132 228.988 105.582 227.261 103.608C226.259 102.464 226.035 100.639 225.461 99.1205C226.916 99.0586 228.464 98.6451 229.806 99.0045C233.088 99.8837 236.439 100.786 239.469 102.273C249.813 107.352 247.439 116.278 239.287 124.096C237.207 126.091 234.555 127.579 231.968 128.918C230.667 129.592 228.924 129.412 227.38 129.619C227.228 128.141 226.821 126.635 226.987 125.194C227.208 123.277 227.876 121.411 228.534 118.799C226.444 119.217 224.556 119.78 222.634 119.946C213.949 120.692 205.238 121.175 196.569 122.062C192.051 122.524 187.606 123.673 183.114 124.426C179.581 125.018 176.035 125.82 172.477 125.929C165.024 126.158 161.886 123.4 161.027 116.162C158.964 98.7851 157.017 81.3948 154.972 64.0161C154.63 61.1102 154.03 58.2345 153.345 54.1159C151.943 56.2483 150.785 57.6076 150.079 59.1712C148.879 61.8282 148.529 65.0928 146.749 67.1913C145.362 68.8255 142.344 69.0754 140.051 69.9405C139.683 67.9762 138.576 65.8002 139.068 64.0826C141.875 54.2914 146.709 47.453 152.391 43.7272C154.483 45.3332 156.224 46.7277 158.025 48.0409C163.417 51.974 168.934 55.7516 174.1 59.9609C174.682 60.4355 173.551 64.6755 172.847 64.7838C169.433 65.3091 165.893 65.0209 161.588 65.0209C162.254 68.7484 163.142 73.6301 163.997 78.5174C165.678 88.1247 167.316 97.7396 169.056 107.336C169.213 108.205 169.975 108.964 170.783 109.569Z" fill="#6528F7"/>
<path d="M94.7051 78.0317C103.97 84.507 111.172 92.382 116.075 102.305C124.419 119.196 115.709 135.762 98.3073 139.902C93.8975 140.952 89.233 140.93 84.7185 141.398C84.0829 136.921 84.2024 137.225 87.5302 135.914C94.3925 133.211 100.701 129.814 105.279 123.495C108.599 118.914 108.799 114.419 107.061 109.622C105.436 105.136 103.262 100.849 100.195 96.8664C100.054 99.097 100.274 101.427 99.6955 103.537C98.5762 107.619 95.666 110.241 91.4846 110.923C86.9725 111.659 82.9025 110.633 80.1663 106.543C77.6376 102.764 74.954 99.0621 72.7888 95.0812C72.1515 93.9093 72.4783 91.1497 73.3814 90.4697C74.5387 89.5981 77.3324 89.3382 78.3436 90.1526C80.5835 91.9566 81.9501 94.8042 84.0548 96.8294C85.7846 98.4939 88.1882 100.835 90.0735 100.649C93.1542 100.345 94.7964 97.4818 93.9868 94.0372C93.2934 91.087 93.0512 87.8363 91.5926 85.3042C89.1733 81.1042 89.43 79.6334 94.7051 78.0317Z" fill="#6528F7"/>
<path d="M442.314 83.1667C447.079 78.57 451.583 74.1988 456.685 69.247C458.157 79.0662 450.019 83.3238 447.036 90.3688C450.884 94.3697 456.076 95.3304 461.395 96.0037C463.816 96.3103 466.334 96.3534 468.612 97.1081C469.939 97.5478 471.961 99.4501 471.764 100.181C471.373 101.635 469.86 103.508 468.469 103.858C457.662 106.585 447.744 104.882 439.17 96.9457C430.948 102.892 422.214 104.116 413.096 99.0064C405.347 94.6647 402.036 81.8624 407.024 75.96C411.095 71.1413 420.22 69.5556 427.309 72.8833C430.502 74.3826 433.327 76.7024 436.233 78.7705C438.248 80.2046 440.117 81.8445 442.314 83.1667ZM422.571 95.0011C425.679 94.194 428.841 93.5387 431.855 92.4662C432.552 92.2181 433.3 90.3925 433.071 89.5519C431.865 85.1149 422.034 77.9913 417.496 78.0032C413.038 78.0148 409.369 81.5581 410.066 85.178C411.231 91.2275 415.146 94.5314 422.571 95.0011Z" fill="#6528F7"/>
<path d="M44.7313 143.463C40.855 146.339 37.6616 144.05 34.4207 142.728C32.4778 141.936 30.6522 140.855 27.754 139.388C26.7712 144.571 25.8118 149.229 25.0404 153.917C24.7737 155.539 25.5747 157.61 24.8262 158.817C23.5833 160.82 21.5614 163.584 19.7242 163.697C16.6424 163.887 13.5116 161.994 14.0394 157.895C15.0481 150.063 16.2828 142.26 17.5458 133.609C13.5667 131.252 8.19843 128.27 3.07961 124.907C1.73538 124.024 0.140885 121.713 0.440808 120.496C1.16877 117.542 3.74566 118.247 5.99815 119.04C10.7292 120.705 15.4759 122.325 20.6445 124.112C21.8054 119.974 22.6056 115.826 24.2062 112.014C24.9096 110.339 27.2432 109.348 28.8366 108.046C29.8903 109.856 31.9173 111.726 31.8077 113.462C31.5256 117.929 30.2972 122.337 29.4437 126.786C35.6646 131.285 45.9507 131.852 44.7313 143.463Z" fill="#6528F7"/>
<path d="M389.127 114.02C387.841 111.275 385.956 108.492 386.264 105.977C386.962 100.283 388.741 94.7218 390.091 89.0595C385.574 86.9377 382.672 88.744 381.212 91.7854C379.566 95.2156 379.316 99.2938 377.877 102.855C377.087 104.81 375.371 106.954 373.538 107.698C372.567 108.093 369.835 106.024 368.968 104.47C365.861 98.8994 369.314 88.9572 376.294 82.209C380.964 77.6943 388.401 76.5545 394.009 79.4941C398.972 82.096 401.261 89.2432 399.871 96.4196C399.187 99.953 398.963 103.642 399.062 107.246C399.228 113.309 395.616 116.047 389.127 114.02Z" fill="#6528F7"/>
<path d="M334.433 117.824C329.861 118.957 325.757 119.979 322.336 115.918C319.667 112.75 321.063 109.884 323.056 107.524C323.75 106.703 326.346 107.642 328.045 107.479C330.3 107.261 332.526 106.75 334.742 106.369C331.873 101.309 328.906 97.0246 326.92 92.3257C324.614 86.8712 325.968 82.8972 330.833 80.1124C335.122 77.6573 339.722 75.6308 344.397 74.0313C345.908 73.5141 348.431 74.5182 349.841 75.6421C350.792 76.4005 351.007 78.6553 350.763 80.1083C350.633 80.8827 348.889 81.5364 347.768 81.9645C344.91 83.0549 341.863 83.7189 339.129 85.0437C334.453 87.309 334.076 89.2005 337.017 93.473C338.125 95.0832 339.293 96.6833 340.636 98.0956C346.935 104.72 346.13 111.074 338.269 115.904C337.166 116.581 335.965 117.099 334.433 117.824Z" fill="#6528F7"/>
<path d="M50.9559 123.007C48.8137 123.249 47.0569 123.742 45.3482 123.611C44.5261 123.548 43.4095 122.422 43.1507 121.56C42.9631 120.935 43.7854 119.732 44.4714 119.17C46.7295 117.32 49.3255 115.841 51.3821 113.806C52.2243 112.973 52.5185 110.955 52.2005 109.694C51.1088 105.364 49.6358 101.131 48.3081 96.861C48.8198 96.4371 49.3314 96.0133 49.8431 95.5894C51.0449 96.3665 52.4399 96.957 53.4077 97.9599C55.3383 99.9607 57.1233 102.121 58.8023 104.34C60.4838 106.564 62.1329 106.928 64.5041 105.245C67.1069 103.398 70.233 103.13 71.5977 106.38C72.4017 108.294 72.2275 111.932 70.9386 113.151C67.8428 116.079 67.2481 118.709 68.8698 122.495C69.4609 123.876 69.3004 125.958 68.6826 127.369C68.056 128.802 66.5713 130.551 65.2238 130.785C63.8053 131.031 61.5726 130.065 60.6408 128.884C58.8709 126.639 57.7749 123.864 56.5556 121.6C54.7774 122.079 53.0693 122.54 50.9559 123.007Z" fill="#6528F7"/>
<path d="M362.989 103.596C362.097 105.377 361.469 107.018 360.298 108.036C359.395 108.822 357.502 109.457 356.606 109.019C355.448 108.454 353.994 106.636 354.142 105.561C355.046 98.982 356.32 92.4513 357.616 85.9336C357.761 85.2068 358.982 84.0462 359.427 84.1609C360.38 84.4065 361.512 85.1779 361.939 86.0449C364.663 91.5773 364.739 97.3417 362.989 103.596Z" fill="#6528F7"/>
<path d="M362.643 75.6389C360.118 77.3692 357.731 77.5398 356.63 74.8974C356.014 73.4171 356.234 70.686 357.239 69.6907C358.209 68.7293 361.942 68.6617 362.236 69.2719C363.071 71.009 362.772 73.292 362.643 75.6389Z" fill="#6527F8"/>
<path d="M42.1146 334.888C41.7117 334.511 41.5043 333.948 41.2969 333.385C41.6362 333.553 41.9756 333.721 42.506 334.107C42.568 334.451 42.439 334.576 42.1146 334.888Z" fill="black"/>
<path d="M129.484 223.503C129.191 223.968 128.711 224.24 128.23 224.513C128.28 224.061 128.329 223.61 128.647 223.044C129.043 223.056 129.17 223.183 129.484 223.503Z" fill="black"/>
<path d="M269.983 297.643C266.017 305.021 260.597 309.864 252.12 309.974C245.843 310.056 241.951 304.137 245.637 299.144C252.271 290.155 257.918 280.078 268.205 274.388C269.717 273.552 271.515 273.233 273.181 272.675C273.572 272.995 273.963 273.316 274.354 273.636C273.639 274.864 273.227 276.57 272.161 277.246C263.507 282.734 257.796 290.959 251.74 298.858C250.805 300.078 250.366 301.678 249.489 303.546C262.477 305.958 263.754 294.011 269.369 287.797C269.936 288.046 270.503 288.296 271.07 288.546C270.717 291.446 270.365 294.345 269.983 297.643Z" fill="#6628F7"/>
<path d="M330.38 400.949C330.799 407.889 331.046 414.526 330.873 421.152C330.839 422.452 329.149 424.789 328.284 424.761C326.561 424.704 324.566 423.661 323.283 422.41C322.262 421.414 322.133 419.503 321.624 418.042C314.235 419.596 310.656 416.817 311.071 409.664C311.37 404.511 312.322 399.396 312.963 394.415C316.756 393.432 318.166 394.67 318.02 398.003C317.912 400.49 318.224 403.011 317.949 405.473C317.497 409.523 318.756 412.528 322.541 414.475C323.363 410.736 324.41 407.062 324.927 403.316C325.432 399.654 327.221 399.364 330.38 400.949Z" fill="#6528F7"/>
<path d="M88.3793 215.131C89.6769 214.751 90.6873 214.62 91.6977 214.49C91.4395 215.845 91.4903 217.371 90.8577 218.521C89.6095 220.789 87.641 222.696 86.597 225.032C85.2288 228.094 85.4035 231.133 89.1583 233.108C92.2499 230.416 96.0799 228.208 98.1996 224.903C100.127 221.897 100.195 217.7 101.127 213.846C106.511 217.604 105.987 225.548 100.5 229.872C97.9419 231.888 95.3799 233.909 92.7067 235.765C90.0085 237.638 87.3201 237.908 84.7532 235.29C81.4919 231.964 80.7116 225.16 83.4446 221.098C84.8102 219.069 86.5317 217.279 88.3793 215.131Z" fill="#6527F8"/>
<path d="M313.58 169.92C319.488 165.183 325.105 160.699 330.722 156.215C331.248 156.817 331.774 157.419 332.3 158.021C328.563 164.654 319.564 166.255 315.727 173.804C320.428 173.804 324.664 173.804 329.369 173.804C326.27 178.823 316.726 181.008 313.572 177.503C312.315 176.106 313.316 172.677 313.58 169.92Z" fill="#6527F8"/>
<path d="M147.033 193.067C149.144 195.026 150.867 197.024 152.865 199.341C157.455 195.755 163.321 193.381 161.139 185.724C160.95 185.063 162.213 183.988 162.801 183.105C164.49 184.285 166.527 185.192 167.736 186.745C168.465 187.68 168.254 189.719 167.862 191.089C166.529 195.746 159.062 202.101 154.488 202.946C150.215 203.735 146.182 198.563 147.033 193.067Z" fill="#6527F8"/>
</svg>
