<svg width="512" height="258" viewBox="0 0 512 258" fill="none" xmlns="http://www.w3.org/2000/svg">
<path d="M512 161.532C511.356 162.275 510.384 162.369 510.116 162.853C506.263 169.799 500.196 172.362 492.551 172.017C490.248 171.913 487.936 172.001 485.236 172.001C485.149 173.892 485.012 175.497 485.01 177.102C484.993 191.765 485.001 206.428 485 221.091C484.999 229.753 482.802 231.999 474.324 232C459.661 232.002 444.998 232.001 430.335 232.001C428.714 232.001 427.093 232.001 425 232.001C425 237.577 425.019 242.698 424.995 247.819C424.965 254.099 422.212 256.98 416.095 256.989C396.6 257.019 377.105 257.024 357.61 256.985C352 256.973 349.068 254.072 349.018 248.516C348.948 240.852 348.955 233.186 349.016 225.522C349.059 220.096 351.991 217.006 356.906 217C361.973 216.994 364.904 219.966 364.984 225.36C365.057 230.341 365 235.323 365 240.652C379.632 240.652 394.018 240.652 408.704 240.652C408.704 166.27 408.704 91.8957 408.704 17.2607C394.307 17.2607 380.039 17.2607 365 17.2607C365 19.0826 365 20.9968 365 22.9109C365 78.7303 365.002 134.55 364.997 190.369C364.996 197.025 362.348 200.067 356.683 200C352.002 199.945 349.03 197.062 349.014 192.379C348.974 180.716 349 169.052 349 157.388C349 155.758 349 154.127 349 152.259C286.976 152.259 225.384 152.259 163 152.259C163 153.893 163 155.637 163 157.381C163 187.373 163.004 217.366 162.996 247.358C162.995 254.282 160.348 256.99 153.556 256.995C134.394 257.01 115.232 257.015 96.0706 256.992C89.8427 256.984 87.0499 254.183 87.0074 247.977C86.9723 242.843 87.0002 237.709 87.0002 232.001C82.7114 232.001 78.7681 232.001 74.8247 232.001C61.828 232.001 48.8312 232.025 35.8345 231.989C29.9353 231.972 27.0274 229.105 27.014 223.24C26.9753 206.419 27.0003 189.597 27.0003 171.937C16.5714 172.979 6.85681 171.828 0.229 162.659C-2.01166e-06 140.646 -1.98823e-06 118.292 1.17695e-08 95.4689C1.83041 93.3809 3.61381 91.7044 5.49987 90.1527C11.6451 85.0968 19.0437 85.9281 27.0001 86.0236C27.0001 84.0845 27.0001 82.3354 27.0001 80.5862C27.0001 65.5871 26.9911 50.5879 27.0042 35.5887C27.0102 28.6853 29.6582 26.011 36.508 26.0051C53.1424 25.9906 69.7768 26.0004 87.0004 26.0004C87.0004 20.3852 86.9671 15.1112 87.0092 9.83773C87.0565 3.91878 89.8839 1.02419 95.7592 1.01371C115.258 0.978948 134.757 0.977743 154.256 1.01465C160.112 1.02575 162.958 3.94448 162.99 9.85337C163.03 17.3527 162.885 24.8548 163.037 32.3513C163.154 38.1244 159.852 40.8023 155.035 40.8284C150.23 40.8543 146.802 38.157 146.97 32.4317C147.115 27.4713 147 22.5031 147 17.2744C132.334 17.2744 118.063 17.2744 103.396 17.2744C103.396 91.5416 103.396 165.927 103.396 240.656C117.644 240.656 132.032 240.656 147 240.656C147 238.698 147 236.758 147 234.817C147 178.653 146.995 122.49 147.006 66.3263C147.007 58.7736 151.734 55.4186 158.539 57.9947C162.283 59.412 163.02 62.3776 163.012 65.8995C162.982 79.0443 163 92.1893 163 105.666C224.999 105.666 286.717 105.666 349 105.666C349 103.848 349 102.073 349 100.297C349 70.4654 348.996 40.6337 349.003 10.802C349.005 3.57206 351.57 1.00643 358.795 1.00318C377.627 0.994711 396.459 0.99343 415.292 1.00391C422.434 1.0079 424.985 3.62298 424.999 10.8889C425.004 13.5554 424.958 16.2227 425.01 18.8882C425.078 22.3203 424.362 25.398 428.843 27.7594C433.696 30.3172 432.819 36.81 428.126 40.4736C426.395 41.825 424.863 42.869 424.872 45.846C425.047 101.676 425.003 157.506 425.01 213.336C425.01 213.989 425.099 214.643 425.172 215.645C439.62 215.645 454.008 215.645 468.7 215.645C468.7 157.934 468.7 100.215 468.7 42.0002C464.61 42.0002 460.656 42.0356 456.702 41.9917C451.254 41.9311 448.057 39.0065 448.001 34.1103C447.946 29.199 451.156 26.0678 456.482 26.0163C463.148 25.9518 469.815 25.9493 476.481 26.0169C482.056 26.0734 484.967 28.9834 484.984 34.5783C485.03 49.744 485 64.91 485 80.0758C485 81.872 485 83.6683 485 86.148C495.927 84.9729 505.748 86.1127 511.76 96.3397C512 117.688 512 139.375 512 161.532ZM42.9999 121.5C42.9999 152.914 42.9999 184.329 42.9999 215.606C58.0763 215.606 72.463 215.606 86.7453 215.606C86.7453 157.62 86.7453 100.03 86.7453 42.3066C72.1041 42.3066 57.7192 42.3066 42.9999 42.3066C42.9999 68.5742 42.9999 94.5372 42.9999 121.5ZM240.5 122.001C214.75 122.001 189 122.001 163.399 122.001C163.399 127.085 163.399 131.477 163.399 135.745C225.387 135.745 286.977 135.745 348.69 135.745C348.69 131.098 348.69 126.712 348.69 122.001C312.754 122.001 277.127 122.001 240.5 122.001ZM15.0014 151.141C15.9949 156.637 17.5939 157.216 26.6837 155.369C26.6837 137.676 26.6837 119.983 26.6837 102.001C25.2282 102.001 24.088 102.009 22.9478 102C15.0035 101.937 15.0014 101.936 15.0004 109.811C14.9988 123.276 15.0001 136.741 15.0014 151.141ZM497 150.148C497 136.003 497.116 121.855 496.863 107.714C496.829 105.796 495.342 102.783 493.839 102.261C491.239 101.359 488.1 102.011 485.394 102.011C485.394 120.454 485.394 138.157 485.394 155.999C487.782 155.999 489.778 155.942 491.77 156.012C495.222 156.135 497.124 154.695 497 150.148Z" fill="#6528F7"/>
</svg>
