<svg width="45" height="64" viewBox="0 0 45 64" fill="none" xmlns="http://www.w3.org/2000/svg">
<g id="CSS">
<path id="Vector" d="M22.4725 63.5176L4.09527 58.416L0 12.4827H45L40.9004 58.4088L22.4725 63.5176Z" fill="#6528F7"/>
<path id="Vector_2" d="M37.3907 55.4844L40.8941 16.2384H22.5V59.6126L37.3907 55.4844Z" fill="#6528F7"/>
<path id="Vector_3" d="M9.38831 33.2744L9.89322 38.9079H22.5V33.2744H9.38831Z" fill="#181818"/>
<path id="Vector_4" d="M8.37378 21.8721L8.88589 27.5057H22.5V21.8721H8.37378Z" fill="#181818"/>
<path id="Vector_5" d="M22.4999 47.9053L22.4753 47.9119L16.2012 46.2177L15.8001 41.7247H10.1449L10.9342 50.5702L22.474 53.7737L22.4999 53.7665V47.9053Z" fill="#181818"/>
<path id="Vector_6" d="M10.5905 0H17.4136V2.85333H13.4438V5.70666H17.4136V8.55999H10.5905V0Z" fill="#6528F7"/>
<path id="Vector_7" d="M18.7783 0H25.6015V2.48116H21.6317V2.97739H25.6015V8.68405H18.7783V6.07884H22.7482V5.5826H18.7783V0Z" fill="#6528F7"/>
<path id="Vector_8" d="M26.9661 0H33.7892V2.48116H29.8194V2.97739H33.7892V8.68405H26.9661V6.07884H30.9359V5.5826H26.9661V0Z" fill="#6528F7"/>
<path id="Vector_9" d="M35.5755 33.2745L36.5925 21.8721H22.4805V27.5057H30.4187L29.9061 33.2745H22.4805V38.9079H29.4175L28.7636 46.2142L22.4805 47.9101V53.7711L34.0295 50.5702L34.1142 49.6185L35.4381 34.7872L35.5755 33.2745Z" fill="#181818"/>
</g>
</svg>
