<svg width="45" height="64" viewBox="0 0 45 64" fill="none" xmlns="http://www.w3.org/2000/svg">
<g id="HTML">
<path id="Vector" d="M45 12.4827L40.9004 58.4088L22.4725 63.5176L4.09527 58.416L0 12.4827H45Z" fill="#6528F7"/>
<path id="Vector_2" d="M22.5 59.6126L37.3907 55.4844L40.8941 16.2384H22.5V59.6126Z" fill="#6528F7"/>
<path id="Vector_3" d="M14.5305 27.5057H22.5V21.8721H8.37378L8.50863 23.3835L9.89324 38.9079H22.5V33.2745H15.0454L14.5305 27.5057Z" fill="#181818"/>
<path id="Vector_4" d="M15.8002 41.7247H10.145L10.9343 50.5702L22.4741 53.7737L22.5001 53.7665V47.9053L22.4754 47.9119L16.2013 46.2177L15.8002 41.7247Z" fill="#181818"/>
<path id="Vector_5" d="M4.18677 0H7.04965V2.82852H9.66851V0H12.5315V8.56545H9.66864V5.69723H7.04977V8.56545H4.18689L4.18677 0Z" fill="#6528F7"/>
<path id="Vector_6" d="M16.2965 2.84043H13.7761V0H21.6811V2.84043H19.1596V8.56545H16.2966L16.2965 2.84043Z" fill="#6528F7"/>
<path id="Vector_7" d="M22.9355 0H25.9208L27.7571 3.00964L29.5915 0H32.5778V8.56545H29.7267V4.31994L27.7571 7.36544H27.7078L25.7368 4.31994V8.56545H22.9355V0Z" fill="#6528F7"/>
<path id="Vector_8" d="M34.0027 0H36.8664V5.7342H40.8925V8.56545H34.0027V0Z" fill="#6528F7"/>
<path id="Vector_9" d="M22.4805 38.9079H29.4175L28.7636 46.2141L22.4805 47.91V53.771L34.0295 50.5702L34.1142 49.6184L35.4381 34.7872L35.5755 33.2744H22.4805V38.9079Z" fill="#181818"/>
<path id="Vector_10" d="M22.4805 27.4919V27.5057H36.0881L36.2011 26.2394L36.4578 23.3835L36.5925 21.8721H22.4805V27.4919Z" fill="#181818"/>
</g>
</svg>
