<svg width="50" height="36" viewBox="0 0 50 36" fill="none" xmlns="http://www.w3.org/2000/svg">
<path id="Vector" fill-rule="evenodd" clip-rule="evenodd" d="M0 28.9727L5.80318 25.4599C6.92061 27.4478 7.93925 29.1271 10.384 29.1271C12.7238 29.1271 14.2055 28.2134 14.2055 24.645V0.401285H21.336V24.7438C21.336 32.1274 17.0083 35.4859 10.6927 35.4859C4.98827 35.4859 1.67922 32.5349 0 28.9727ZM25.2068 28.2072L31.01 24.8487C32.5411 27.3429 34.5228 29.1764 38.0356 29.1764C40.9865 29.1764 42.8757 27.701 42.8757 25.6637C42.8757 23.2189 40.9433 22.3546 37.6837 20.9285L35.8995 20.163C30.7569 17.9714 27.3429 15.2241 27.3429 9.42091C27.3429 4.07458 31.4175 0 37.7824 0C42.3139 0 45.5735 1.58044 47.9133 5.70441L42.3632 9.26657C41.1409 7.07495 39.8197 6.21064 37.7824 6.21064C35.6958 6.21064 34.3684 7.53179 34.3684 9.26657C34.3684 11.4026 35.6896 12.2731 38.7455 13.5943L40.5297 14.3598C46.5922 16.9589 50 19.6074 50 25.5649C50 31.9793 44.9562 35.492 38.1837 35.492C31.5718 35.492 27.2935 32.3311 25.2068 28.2072Z" fill="#6528F7"/>
</svg>
