<svg width="50" height="38" viewBox="0 0 50 38" fill="none" xmlns="http://www.w3.org/2000/svg">
<path id="Vector" d="M43.0539 21.5556C41.3096 21.5647 39.7935 21.9848 38.5241 22.6058C38.0583 21.6834 37.5926 20.8615 37.5104 20.2587C37.419 19.5555 37.3095 19.1263 37.419 18.2861C37.5286 17.4459 38.0218 16.2495 38.0127 16.1581C38.0035 16.0668 37.9031 15.6376 36.8985 15.6284C35.8939 15.6193 35.0263 15.8202 34.9258 16.0851C34.8254 16.3499 34.6336 16.9527 34.5057 17.5737C34.3322 18.487 32.4965 21.7474 31.4463 23.4552C31.1084 22.7885 30.8161 22.204 30.7522 21.7382C30.6609 21.035 30.5513 20.6058 30.6609 19.7656C30.7704 18.9254 31.2636 17.729 31.2545 17.6376C31.2453 17.5463 31.1449 17.1171 30.1403 17.1079C29.1357 17.0988 28.2681 17.2997 28.1676 17.5646C28.0672 17.8294 27.9576 18.4505 27.7475 19.0532C27.5375 19.656 25.099 25.0991 24.4598 26.5055C24.131 27.227 23.8479 27.8023 23.6469 28.195C23.6469 28.195 23.6378 28.2224 23.6104 28.2681C23.4369 28.606 23.3364 28.7887 23.3364 28.7887C23.3364 28.7887 23.3364 28.7887 23.3364 28.7978C23.1994 29.0444 23.0533 29.2727 22.9803 29.2727C22.9255 29.2727 22.825 28.6151 22.9985 27.7201C23.3638 25.8297 24.2314 22.8889 24.2223 22.7885C24.2223 22.7337 24.3867 22.2223 23.6561 21.9574C22.9437 21.6926 22.688 22.1309 22.6241 22.1309C22.5601 22.1309 22.5145 22.2862 22.5145 22.2862C22.5145 22.2862 23.309 18.9801 20.9985 18.9801C19.5555 18.9801 17.5646 20.5601 16.5782 21.9848C15.9572 22.3227 14.633 23.0442 13.2174 23.8205C12.6786 24.1219 12.1215 24.4232 11.6009 24.7063C11.5644 24.6698 11.5279 24.6242 11.4913 24.5876C8.69672 21.6012 3.52761 19.4916 3.7468 15.4823C3.82899 14.0211 4.33129 10.1854 13.674 5.52769C21.3638 1.73762 27.4827 2.78788 28.5421 5.11672C30.0581 8.44102 25.2634 14.6147 17.318 15.5097C14.2859 15.8476 12.6968 14.6786 12.295 14.2403C11.8749 13.7836 11.811 13.7562 11.6557 13.8476C11.4 13.9846 11.5644 14.3955 11.6557 14.633C11.8932 15.254 12.8704 16.3499 14.5234 16.8888C15.9846 17.3637 19.5372 17.6285 23.8387 15.9664C28.6517 14.1033 32.4143 8.92505 31.3093 4.58702C30.2042 0.185063 22.8981 -1.26704 15.9846 1.18966C11.8749 2.65089 7.41814 4.95233 4.21257 7.94785C0.404233 11.5096 -0.198525 14.6056 0.048058 15.9024C0.933929 20.5053 7.28115 23.5008 9.82004 25.7201C9.69218 25.7931 9.57346 25.8571 9.473 25.9119C8.20355 26.542 3.36323 29.0718 2.15771 31.7477C0.787806 34.7797 2.37689 36.9533 3.42715 37.2455C6.68753 38.1497 10.0392 36.5241 11.8384 33.839C13.6375 31.154 13.4183 27.6653 12.5872 26.0671C12.5781 26.0489 12.569 26.0306 12.5507 26.0123C12.8795 25.8205 13.2174 25.6196 13.5462 25.4278C14.1946 25.0443 14.8339 24.6881 15.3819 24.3958C15.0713 25.2452 14.843 26.2589 14.7334 27.7201C14.5964 29.4371 15.2997 31.6655 16.2221 32.5422C16.633 32.9258 17.1171 32.9349 17.4276 32.9349C18.5052 32.9349 18.9893 32.0399 19.5281 30.9805C20.1856 29.6837 20.7793 28.1768 20.7793 28.1768C20.7793 28.1768 20.0395 32.25 22.0487 32.25C22.7793 32.25 23.5191 31.3002 23.8479 30.8161V30.8253C23.8479 30.8253 23.8661 30.7979 23.9027 30.7339C23.9757 30.6152 24.0214 30.5421 24.0214 30.5421V30.5239C24.3136 30.0124 24.9712 28.8526 25.9484 26.9256C27.2087 24.4415 28.4233 21.3364 28.4233 21.3364C28.4233 21.3364 28.5329 22.0944 28.9074 23.3547C29.1266 24.0945 29.5832 24.9073 29.9485 25.6927C29.6563 26.1036 29.4736 26.332 29.4736 26.332C29.4736 26.332 29.4736 26.332 29.4827 26.3411C29.2453 26.6516 28.9896 26.9895 28.7065 27.3183C27.711 28.5055 26.5237 29.8663 26.3594 30.259C26.1676 30.7248 26.2132 31.0627 26.5785 31.3367C26.8434 31.5376 27.3183 31.565 27.8023 31.5376C28.6973 31.4737 29.3275 31.2545 29.638 31.1175C30.122 30.944 30.6882 30.6791 31.2179 30.2864C32.1951 29.5649 32.7888 28.5329 32.734 27.1722C32.7066 26.4233 32.46 25.6744 32.1586 24.9712C32.2499 24.8433 32.3321 24.7155 32.4235 24.5876C33.9669 22.3318 35.1633 19.8569 35.1633 19.8569C35.1633 19.8569 35.2729 20.6149 35.6473 21.8752C35.83 22.5145 36.2044 23.2086 36.5332 23.8844C35.0811 25.0625 34.1861 26.4324 33.8664 27.3274C33.2911 28.9896 33.7386 29.7385 34.5879 29.912C34.9715 29.9942 35.5194 29.8115 35.9213 29.638C36.4327 29.4736 37.0355 29.1905 37.6108 28.7704C38.588 28.0489 39.5287 27.0443 39.4739 25.6835C39.4465 25.0625 39.2821 24.4506 39.0538 23.857C40.2867 23.3456 41.8758 23.0625 43.9033 23.2999C48.2504 23.8113 49.1089 26.5238 48.9445 27.6653C48.7801 28.8069 47.8668 29.4279 47.5655 29.6197C47.2641 29.8115 47.1636 29.8754 47.191 30.0124C47.2276 30.2134 47.3737 30.2042 47.6294 30.1677C47.9856 30.1038 49.9126 29.2453 49.9948 27.1448C50.1318 24.4598 47.5746 21.5282 43.0539 21.5556ZM9.51866 32.8618C8.0757 34.4327 6.0665 35.0263 5.1989 34.524C4.26736 33.9852 4.63267 31.6655 6.40441 30.0033C7.48207 28.9896 8.87024 28.0489 9.79264 27.4736C10.0027 27.3457 10.3132 27.163 10.6876 26.9347C10.7516 26.8982 10.7881 26.8799 10.7881 26.8799C10.8612 26.8343 10.9342 26.7886 11.0073 26.7429C11.6557 29.1174 11.0347 31.2088 9.51866 32.8618ZM20.0213 25.7201C19.519 26.9439 18.4687 30.0764 17.8294 29.9028C17.2815 29.7567 16.9435 27.3822 17.7198 25.0351C18.1125 23.857 18.9436 22.4506 19.4276 21.9026C20.213 21.0259 21.0807 20.7336 21.2907 21.0898C21.5556 21.5556 20.3318 24.9529 20.0213 25.7201ZM28.6882 29.8663C28.4781 29.9759 28.2772 30.049 28.1859 29.9942C28.122 29.9576 28.2772 29.8115 28.2772 29.8115C28.2772 29.8115 29.364 28.6425 29.7932 28.1128C30.0398 27.8023 30.3321 27.437 30.6426 27.0261V27.1448C30.6426 28.5421 29.2909 29.4827 28.6882 29.8663ZM35.3733 28.3412C35.2181 28.2316 35.2455 27.8663 35.766 26.7247C35.9669 26.2772 36.4418 25.5283 37.2547 24.8068C37.346 25.0991 37.4099 25.3822 37.4008 25.647C37.3916 27.4096 36.1313 28.0672 35.3733 28.3412Z" fill="#6528F7"/>
</svg>
