<svg width="50" height="34" viewBox="0 0 50 34" fill="none" xmlns="http://www.w3.org/2000/svg">
<path id="Vector" fill-rule="evenodd" clip-rule="evenodd" d="M0 3.33552V6.25264H9.29869V32.728H15.9015V6.25264H25.2002V3.38792C25.2002 1.78088 25.2002 0.470796 25.1303 0.43586C25.1303 0.383457 19.4591 0.36599 12.571 0.36599L0.0524035 0.418393V3.35298L0 3.33552ZM41.8005 0.348523C43.6229 0.779395 45.0203 1.60038 46.2722 2.90464C46.936 3.62082 47.92 4.87268 47.9899 5.19292C47.9899 5.29773 44.8981 7.39387 43.0174 8.55839C42.9475 8.61079 42.6622 8.30802 42.3711 7.84221C41.4394 6.52048 40.4904 5.94404 39.0056 5.83923C36.8571 5.69367 35.4305 6.82325 35.4305 8.69813C35.4305 9.26875 35.5353 9.59481 35.7508 10.0548C36.234 11.0388 37.1307 11.6269 39.9023 12.8438C45.0203 15.0448 47.2388 16.4946 48.578 18.5674C50.0977 20.8907 50.4354 24.5414 49.4164 27.278C48.2694 30.265 45.4803 32.2855 41.4918 32.9493C40.24 33.1647 37.3753 33.1298 36.0361 32.8969C33.1772 32.3612 30.4347 30.9288 28.7578 29.0889C28.094 28.3727 26.8247 26.4571 26.9004 26.3348L27.5817 25.9039L30.2659 24.3493L32.2863 23.1673L32.7521 23.7961C33.3402 24.7278 34.6678 25.9796 35.4363 26.4105C37.7596 27.6099 40.8747 27.4469 42.4118 26.0553C43.0756 25.4498 43.3609 24.8034 43.3609 23.9068C43.3609 23.0858 43.2328 22.7073 42.8252 22.0843C42.2546 21.2982 41.1076 20.6519 37.8877 19.2254C34.1845 17.6533 32.6124 16.6518 31.1451 15.1088C30.3066 14.1772 29.5381 12.7274 29.1771 11.5337C28.9092 10.4973 28.8219 7.95866 29.0722 6.93388C29.8408 3.35881 32.5425 0.855089 36.4087 0.138909C37.6606 -0.111463 40.6126 -0.00665539 41.847 0.31941L41.8005 0.348523Z" fill="#6528F7"/>
</svg>
